# xmcd
#
# Track frame offsets:
#	150
#	13183
#	25392
#	38084
#	53879
#	69313
#	83924
#	101139
#	116156
#	130540
#
# Disc length: 1955 seconds
#
# Revision: 1
# Processed by: cddbd v1.4PL0 Copyright (c) Steve Scherf et al.
# Submitted via: EasyCDDAExtractor 5.0.6
#
DISCID=8107a10a
DTITLE=Atomic Deluxe - My True Love
DYEAR=1900
DGENRE=Country
TTITLE0=Crying Waitin Wishin
TTITLE1=Better Come Clean
TTITLE2=My True Love
TTITLE3=I'Ve Been A Fool
TTITLE4=Midnight Again
TTITLE5=If Anyone Wants To Know
TTITLE6=Highway 35
TTITLE7=Damn I'm Dumb
TTITLE8=Never Said A Word
TTITLE9=Howdy
EXTD=
EXTT0=
EXTT1=
EXTT2=
EXTT3=
EXTT4=
EXTT5=
EXTT6=
EXTT7=
EXTT8=
EXTT9=
PLAYORDER=
